# xmcd
#
# Track frame offsets:
# 150
# 15926
# 32842
# 50701
# 63541
# 77840
# 99424
# 118963
# 137683
# 153013
# 169744
# 184249
# 199840
# 220698
# 238057
# 254018
# 270080
# 286878
# 305365
# 322692
# 338428
#
# Disc length: 4706 seconds
#
#
# Revision: 0
# Processed by: cddbd v1.5.2PL0 Copyright (c) Steve Scherf et al.
# Submitted via: FreeRIP 2.951 
#
DISCID=1e126015
DTITLE=na balada - 
DYEAR=2007
DGENRE=Dance
TTITLE0=can you file
TTITLE1=the killer'r song
TTITLE2=3
TTITLE3=4
TTITLE4=venus
TTITLE5=6
TTITLE6=7
TTITLE7=girl
TTITLE8=la bonba
TTITLE9=10
TTITLE10=11
TTITLE11=12
TTITLE12=13
TTITLE13=14
TTITLE14=15
TTITLE15=16
TTITLE16=17
TTITLE17=18
TTITLE18=19
TTITLE19=20
TTITLE20=21
EXTD=
EXTT0=
EXTT1=
EXTT2=
EXTT3=
EXTT4=
EXTT5=
EXTT6=
EXTT7=
EXTT8=
EXTT9=
EXTT10=
EXTT11=
EXTT12=
EXTT13=
EXTT14=
EXTT15=
EXTT16=
EXTT17=
EXTT18=
EXTT19=
EXTT20=
PLAYORDER=
